<?xml version="1.0" standalone="no"?><!DOCTYPE svg PUBLIC "-//W3C//DTD SVG 1.1//EN" "http://www.w3.org/Graphics/SVG/1.1/DTD/svg11.dtd"><svg t="1635385317221" class="icon" viewBox="0 0 1031 1024" version="1.1" xmlns="http://www.w3.org/2000/svg" p-id="3227" xmlns:xlink="http://www.w3.org/1999/xlink" width="128.875" height="128"><defs><style type="text/css"></style></defs><path d="M50.090667 170.666667h938.666666v682.666666h-938.666666z" fill="#E5F0FD" p-id="3228"></path><path d="M50.090667 170.666667h938.666666v128h-938.666666z" fill="#69A8D1" p-id="3229"></path><path d="M988.757333 128h-938.666666a42.666667 42.666667 0 0 0-42.666667 42.666667v682.666666a42.666667 42.666667 0 0 0 42.666667 42.666667h938.666666c23.552 0 42.666667-19.157333 42.666667-42.666667V170.666667a42.666667 42.666667 0 0 0-42.666667-42.666667z m-42.666666 682.666667h-853.333334V213.333333h853.333334v597.333334z" fill="#587EA0" p-id="3230"></path><path d="M306.090667 384a42.666667 42.666667 0 0 0-42.666667 42.666667v85.333333h-42.666667v-85.333333a42.666667 42.666667 0 1 0-85.333333 0v128a42.666667 42.666667 0 0 0 42.666667 42.666666h85.333333v85.333334a42.666667 42.666667 0 0 0 85.333333 0v-256a42.666667 42.666667 0 0 0-42.666666-42.666667z m554.666666 0a42.666667 42.666667 0 0 0-42.666666 42.666667v85.333333h-42.666667v-85.333333a42.666667 42.666667 0 1 0-85.333333 0v128a42.666667 42.666667 0 0 0 42.666666 42.666666h85.333334v85.333334a42.666667 42.666667 0 0 0 85.333333 0v-256a42.666667 42.666667 0 0 0-42.666667-42.666667z m-341.333333 0a128 128 0 0 0-128 128v85.333333a128 128 0 0 0 256 0v-85.333333a128 128 0 0 0-128-128z m42.666667 213.333333a42.709333 42.709333 0 0 1-85.333334 0v-85.333333a42.666667 42.666667 0 1 1 85.333334 0v85.333333z" fill="#FF4C35" p-id="3231"></path></svg>