<?xml version="1.0" standalone="no"?><!DOCTYPE svg PUBLIC "-//W3C//DTD SVG 1.1//EN" "http://www.w3.org/Graphics/SVG/1.1/DTD/svg11.dtd"><svg t="1650638622788" class="icon" viewBox="0 0 1024 1024" version="1.1" xmlns="http://www.w3.org/2000/svg" p-id="2026" width="128" height="128" xmlns:xlink="http://www.w3.org/1999/xlink"><defs><style type="text/css">@font-face { font-family: feedback-iconfont; src: url("//at.alicdn.com/t/font_1031158_u69w8yhxdu.woff2?t=1630033759944") format("woff2"), url("//at.alicdn.com/t/font_1031158_u69w8yhxdu.woff?t=1630033759944") format("woff"), url("//at.alicdn.com/t/font_1031158_u69w8yhxdu.ttf?t=1630033759944") format("truetype"); }
</style></defs><path d="M675.620571 73.142857C594.080914 73.142857 546.655086 104.433371 512 146.446629 477.344914 104.433371 429.919086 73.142857 348.379429 73.142857 180.487314 73.142857 43.885714 202.986057 43.885714 362.5984c0 43.256686 12.448914 107.300571 39.760457 145.729829 89.921829 126.346971 374.784 413.125486 386.8672 425.281828a58.587429 58.587429 0 0 0 82.973258 0c12.068571-12.156343 296.945371-298.934857 386.837942-425.252571 27.326171-38.385371 39.789714-102.473143 39.789715-145.759086C980.114286 202.986057 843.512686 73.142857 675.620571 73.142857z m217.029486 401.290972C804.512914 598.279314 512 892.342857 512 892.342857S219.487086 598.279314 131.335314 474.433829C112.493714 447.941486 102.4 396.507429 102.4 362.5984 102.4 235.022629 212.494629 131.657143 348.379429 131.657143 442.397257 131.657143 470.601143 181.218743 512 253.995886 553.384229 181.218743 581.588114 131.657143 675.620571 131.657143 811.476114 131.657143 921.6 235.022629 921.6 362.5984c0 33.909029-10.079086 85.343086-28.949943 111.835429z" p-id="2027"></path><path d="M732.335543 236.6464a14.628571 14.628571 0 0 0 6.114743-27.925943 201.947429 201.947429 0 0 0-84.831086-18.3296 14.628571 14.628571 0 1 0 0 29.257143c25.512229 0 49.956571 5.266286 72.630857 15.6672 1.960229 0.892343 4.052114 1.3312 6.085486 1.3312zM784.559543 257.2288a14.628571 14.628571 0 0 0-1.653029 20.626286c23.464229 27.530971 35.84 60.693943 35.84 95.919543 0 22.762057-7.036343 57.226971-18.432 73.230628-15.915886 22.337829-43.008 54.944914-80.559543 96.914286a14.628571 14.628571 0 0 0 21.796572 19.514514c38.268343-42.788571 66.062629-76.229486 82.592914-99.459657 15.6672-22.016 23.8592-62.039771 23.8592-90.199771 0-41.662171-15.199086-82.461257-42.817828-114.8928a14.657829 14.657829 0 0 0-20.626286-1.653029z" p-id="2028"></path></svg>