<?xml version="1.0" standalone="no"?><!DOCTYPE svg PUBLIC "-//W3C//DTD SVG 1.1//EN" "http://www.w3.org/Graphics/SVG/1.1/DTD/svg11.dtd"><svg t="1635384470387" class="icon" viewBox="0 0 1024 1024" version="1.1" xmlns="http://www.w3.org/2000/svg" p-id="4672" xmlns:xlink="http://www.w3.org/1999/xlink" width="128" height="128"><defs><style type="text/css"></style></defs><path d="M512 512m-512 0a512 512 0 1 0 1024 0 512 512 0 1 0-1024 0Z" fill="#D7F3FF" p-id="4673"></path><path d="M569.167553 657.140866v0.024l-12.659901 85.859329c1.847986-12.437903-52.731588 45.711643-52.731588 45.711643h-134.920946s-32.559746-90.88329-34.383731-78.469387l12.659901-85.833329 40.343685 5.935953 47.115632 6.945946 47.115632 6.945946 47.091632 6.945945 40.369684 5.933954z" fill="#FFFFFF" p-id="4674"></path><path d="M537.321802 717.188397c12.437903 1.847986 21.033836 13.397895 19.18585 25.835798l-6.723947 45.711643H503.776064l7.73394-52.361591c1.821986-12.411903 13.397895-21.007836 25.811798-19.18585zM448.802494 704.134499c12.437903 1.847986 21.009836 13.397895 19.18585 25.835798l-8.645933 58.765541H413.336771l9.653924-65.415489c1.821986-12.411903 13.397895-21.007836 25.811799-19.18585zM360.283185 691.106601c12.437903 1.821986 21.009836 13.373896 19.18585 25.811798l-10.615917 71.819439h-32.979742l-12.707901-1.871985 11.305912-76.597402c1.823986-12.413903 13.399895-21.009836 25.811798-19.16185z" fill="#808080" p-id="4675"></path><path d="M499.736096 195.484473l-43.54366-6.42795 12.929899-87.705315 134.230951 19.777846-12.955898 87.729314-43.54366-6.427949z" fill="#FFFFFF" p-id="4676"></path><path d="M533.82383 290.801728l-47.115632-6.945946-47.091633-6.945945-40.367684-5.935954v-0.024l13.027898-88.34531 43.915657 6.45195 43.54366 6.42795 47.117632 6.945946 43.54366 6.427949 43.915656 6.47795-13.029898 88.347309-40.343685-5.935953z" fill="#FFFFFF" p-id="4677"></path><path d="M520.795931 379.173038l-47.117632-6.945946-47.091632-6.945946-40.367684-5.935953 13.029898-88.37131 40.367684 5.935954 47.091633 6.945945 47.115632 6.945946 47.115631 6.945946 40.343685 5.935953-13.027898 88.36931-40.343685-5.935954z" fill="#FFFFFF" p-id="4678"></path><path d="M507.766033 467.542347l-47.115632-6.969945-47.093632-6.943946-40.367685-5.935954 13.029899-88.347309 40.367684 5.935953 47.091632 6.945946 47.117632 6.945946 47.115632 6.943945 40.343685 5.935954-13.029898 88.37131-40.367685-5.935954z" fill="#FFFFFF" p-id="4679"></path><path d="M582.195452 568.795556l-134.574949-19.851845-47.115632-6.945945-40.343685-5.935954 13.027898-88.36931 40.367685 5.935954 47.093632 6.943946 47.115632 6.969945 47.091632 6.945946 40.367685 5.935954z" fill="#FFFFFF" p-id="4680"></path><path d="M528.799869 651.206912l-47.091632-6.945945-47.117632-6.945946-47.115632-6.945946-40.343685-5.935953v-0.024l13.029898-88.34731 40.343685 5.935954 47.115632 6.945945L582.195452 568.795556l-13.027899 88.34531z" fill="#FFFFFF" p-id="4681"></path><path d="M439.632565 289.22774a12.315904 12.315904 0 0 1-12.195904-14.111889l7.337942-49.801611a12.315904 12.315904 0 0 1 24.36581 3.591972l-7.337943 49.801611a12.319904 12.319904 0 0 1-12.169905 10.519917zM486.724197 296.171686a12.315904 12.315904 0 0 1-12.195904-14.11189l7.337942-49.801611a12.315904 12.315904 0 0 1 24.36581 3.591972l-7.337943 49.801611a12.319904 12.319904 0 0 1-12.169905 10.519918zM533.841829 303.115632a12.315904 12.315904 0 0 1-12.195904-14.11189l7.337942-49.801611a12.315904 12.315904 0 0 1 24.36581 3.591972l-7.337943 49.801611a12.319904 12.319904 0 0 1-12.169905 10.519918zM580.957461 310.061578a12.315904 12.315904 0 0 1-12.195904-14.11389l7.337942-49.801611a12.305904 12.305904 0 0 1 13.977891-10.387919 12.315904 12.315904 0 0 1 10.387919 13.979891l-7.337943 49.801611a12.317904 12.317904 0 0 1-12.169905 10.521918zM499.752096 207.800377a12.315904 12.315904 0 0 1-12.195905-14.11389l7.339943-49.801611a12.293904 12.293904 0 0 1 13.97989-10.385919 12.315904 12.315904 0 0 1 10.385919 13.979891l-7.339942 49.801611a12.321904 12.321904 0 0 1-12.169905 10.519918zM546.869728 214.748322a12.315904 12.315904 0 0 1-12.195905-14.113889l7.337943-49.801611a12.315904 12.315904 0 0 1 24.365809 3.591972l-7.337942 49.80161a12.323904 12.323904 0 0 1-12.169905 10.521918zM426.604667 377.59705a12.315904 12.315904 0 0 1-12.195905-14.11189l7.337943-49.801611a12.315904 12.315904 0 0 1 24.36581 3.591972l-7.337943 49.801611a12.319904 12.319904 0 0 1-12.169905 10.519918zM473.696299 384.540996a12.313904 12.313904 0 0 1-12.195904-14.11389l7.337942-49.801611a12.315904 12.315904 0 0 1 24.36581 3.591972l-7.337943 49.801611a12.319904 12.319904 0 0 1-12.169905 10.521918zM520.811931 391.488941a12.315904 12.315904 0 0 1-12.195905-14.113889l7.337943-49.801611a12.315904 12.315904 0 0 1 24.36581 3.591972l-7.337943 49.801611a12.319904 12.319904 0 0 1-12.169905 10.521917zM567.925563 398.432887a12.315904 12.315904 0 0 1-12.195905-14.11189l7.337943-49.80161a12.313904 12.313904 0 1 1 24.36581 3.591972l-7.337943 49.80161a12.315904 12.315904 0 0 1-12.169905 10.519918zM413.560769 465.95436a12.303904 12.303904 0 0 1-12.313904-12.301904v-0.024c0-0.599995 0.044-1.201991 0.133999-1.795986l7.337943-49.775611a12.315904 12.315904 0 0 1 24.36581 3.593972l-7.309943 49.593612c-0.795994 6.035953-5.957953 10.709916-12.213905 10.709917zM460.652401 472.900305a12.303904 12.303904 0 0 1-12.313904-12.301903v-0.024c0-0.599995 0.044-1.201991 0.131999-1.795986l7.337943-49.775611a12.315904 12.315904 0 0 1 24.36581 3.593972l-7.309943 49.591612a12.329904 12.329904 0 0 1-12.211905 10.711916zM507.784033 479.858251a12.315904 12.315904 0 0 1-12.195905-14.11189l7.337943-49.801611a12.315904 12.315904 0 0 1 24.36581 3.591972l-7.337943 49.801611a12.321904 12.321904 0 0 1-12.169905 10.519918zM554.875665 486.804197a12.319904 12.319904 0 0 1-12.197905-14.11789l7.361943-49.801611a12.305904 12.305904 0 0 1 13.983891-10.381919 12.319904 12.319904 0 0 1 10.381918 13.983891l-7.361942 49.801611a12.319904 12.319904 0 0 1-12.167905 10.515918zM400.520871 554.313669a12.319904 12.319904 0 0 1-12.197905-14.115889l7.361943-49.775611a12.305904 12.305904 0 0 1 13.98389-10.381919 12.319904 12.319904 0 0 1 10.381919 13.98389l-7.361942 49.775612a12.315904 12.315904 0 0 1-12.167905 10.513917zM447.638503 561.259615a12.315904 12.315904 0 0 1-12.195905-14.11189l7.337943-49.775611a12.305904 12.305904 0 0 1 13.979891-10.385919 12.315904 12.315904 0 0 1 10.385918 13.979891l-7.337942 49.775611a12.321904 12.321904 0 0 1-12.169905 10.517918zM494.754135 568.207561a12.315904 12.315904 0 0 1-12.195905-14.11189l7.337943-49.775611a12.303904 12.303904 0 0 1 13.97989-10.385919 12.315904 12.315904 0 0 1 10.385919 13.977891l-7.337942 49.775611a12.319904 12.319904 0 0 1-12.169905 10.519918zM541.845767 575.149507a12.319904 12.319904 0 0 1-12.197905-14.11589l7.361943-49.775611a12.305904 12.305904 0 0 1 13.98389-10.381919 12.319904 12.319904 0 0 1 10.381919 13.983891l-7.361942 49.775611a12.317904 12.317904 0 0 1-12.167905 10.513918zM387.492973 642.684979a12.317904 12.317904 0 0 1-12.197905-14.11589l7.361942-49.775611a12.305904 12.305904 0 0 1 13.983891-10.381919 12.319904 12.319904 0 0 1 10.381919 13.983891l-7.361942 49.775611a12.319904 12.319904 0 0 1-12.167905 10.513918zM434.608605 649.628925a12.313904 12.313904 0 0 1-12.195905-14.11189l7.337943-49.775611a12.299904 12.299904 0 0 1 13.97989-10.385919 12.315904 12.315904 0 0 1 10.385919 13.979891l-7.337942 49.775611a12.319904 12.319904 0 0 1-12.169905 10.517918zM481.722237 656.574871a12.313904 12.313904 0 0 1-12.195905-14.11189l7.337942-49.775611a12.305904 12.305904 0 0 1 13.979891-10.385919 12.313904 12.313904 0 0 1 10.385919 13.979891l-7.337943 49.775611a12.313904 12.313904 0 0 1-12.169904 10.517918zM528.815869 663.520816a12.313904 12.313904 0 0 1-12.195905-14.11189l7.337943-49.775611a12.307904 12.307904 0 0 1 13.97989-10.385918 12.313904 12.313904 0 0 1 10.385919 13.97989l-7.337942 49.775611a12.317904 12.317904 0 0 1-12.169905 10.517918z" fill="#808080" p-id="4682"></path><path d="M672.904743 723.740346h24.629808v62.461512h-24.629808zM788.391841 723.740346h24.629807v62.461512h-24.629807zM730.660292 723.740346h24.629807v62.461512h-24.629807zM846.149389 723.740346h24.629808v62.461512h-24.629808zM158.416762 721.276365h24.629808v67.387474H158.416762zM100.687213 721.276365h24.629808v67.387474H100.687213z" fill="#B27214" p-id="4683"></path><path d="M858.467293 657.156866c21.303834 0 38.569699 17.265865 38.569699 38.569699 0 21.329833-17.265865 38.593698-38.569699 38.593698-11.50191 0-21.82183-5.07396-28.889774-13.053898-7.067945 7.979938-17.363864 13.053898-28.865775 13.053898s-21.79783-5.07396-28.865774-13.053898c-7.067945 7.979938-17.363864 13.053898-28.865775 13.053898s-21.79783-5.07396-28.865774-13.053898c-7.067945 7.979938-17.387864 13.053898-28.889774 13.053898-21.303834 0-38.569699-17.265865-38.569699-38.593698 0-21.303834 17.265865-38.569699 38.569699-38.569699 11.50191 0 21.82183 5.049961 28.889774 13.029898 7.067945-7.979938 17.363864-13.029898 28.865774-13.029898s21.79783 5.049961 28.865775 13.029898c7.067945-7.979938 17.363864-13.029898 28.865774-13.029898s21.79783 5.049961 28.865775 13.029898c7.067945-7.981938 17.387864-13.029898 28.889774-13.029898zM170.734666 657.156866c21.329833 0 38.593698 17.265865 38.593699 38.569699 0 21.329833-17.265865 38.593698-38.593699 38.593698-11.50191 0-21.79783-5.07396-28.865774-13.053898-7.067945 7.979938-17.363864 13.053898-28.865775 13.053898s-21.79783-5.07396-28.865774-13.053898c-7.067945 7.979938-17.363864 13.053898-28.865775 13.053898-1.599988 0-3.201975-0.097999-4.753963-0.319997a508.000031 508.000031 0 0 1-26.329794-66.081484c0.763994 0.713994 1.501988 1.477988 2.191983 2.265982 7.067945-7.979938 17.363864-13.029898 28.889774-13.029898 11.50191 0 21.79783 5.049961 28.865775 13.029898 7.067945-7.979938 17.363864-13.029898 28.865774-13.029898s21.79783 5.049961 28.865775 13.029898c7.069945-7.979938 17.365864-13.027898 28.867774-13.027898z" fill="#90BC42" p-id="4684"></path><path d="M950.926571 775.599941l0.024 0.023999c-89.5533 148.810837-252.626026 248.36406-438.948571 248.36406-186.346544 0-349.44527-99.553222-438.99857-248.390059H950.926571z" fill="#9AD14B" p-id="4685"></path><path d="M578.959477 670.908759c-0.591995 0-1.189991-0.042-1.795986-0.129999l-9.777924-1.427989a10.867915 10.867915 0 0 1-0.769994-0.137999L345.335302 636.615026a12.605902 12.605902 0 0 1-0.745994-0.131999l-9.01993-1.317989a12.317904 12.317904 0 0 1-10.405918-13.965891 12.303904 12.303904 0 0 1 13.965891-10.403919l9.777923 1.427989c0.257998 0.036 0.517996 0.083999 0.769994 0.137999l221.280271 32.597745c0.253998 0.036 0.499996 0.081999 0.747995 0.131999l9.015929 1.31799a12.317904 12.317904 0 0 1-1.761986 24.499809zM591.989375 582.563449c-0.599995 0-1.209991-0.044-1.825986-0.135999l-9.777923-1.453989-231.810189-34.185733a12.317904 12.317904 0 0 1-10.371919-13.99189 12.299904 12.299904 0 0 1 13.99189-10.371919l97.225241 14.331888 144.362872 21.307833a12.317904 12.317904 0 0 1-1.793986 24.499809zM605.017273 494.192139c-0.599995 0-1.209991-0.044-1.825985-0.135999l-241.588113-35.639721a12.317904 12.317904 0 0 1-10.371919-13.991891 12.301904 12.301904 0 0 1 13.991891-10.371919l241.588112 35.639722a12.317904 12.317904 0 0 1-1.793986 24.499808zM618.047172 405.82083c-0.601995 0-1.209991-0.044-1.825986-0.135999l-241.590113-35.613722a12.317904 12.317904 0 0 1-10.371919-13.991891 12.299904 12.299904 0 0 1 13.991891-10.371919l241.588113 35.613722a12.317904 12.317904 0 0 1-1.791986 24.499809zM631.07707 317.45152c-0.601995 0-1.211991-0.044-1.825986-0.135999l-231.794189-34.159733a14.289888 14.289888 0 0 1-0.765994-0.137999l-8.99993-1.31599a12.317904 12.317904 0 0 1 3.559972-24.371809l9.777924 1.427988c0.265998 0.04 0.529996 0.085999 0.787994 0.139999l231.058195 34.049734a12.319904 12.319904 0 1 1-1.797986 24.503809zM644.104968 229.08221c-0.591995 0-1.189991-0.042-1.795986-0.129999L410.486793 194.788478a10.531918 10.531918 0 0 1-0.757994-0.135999l-9.00993-1.315989a12.317904 12.317904 0 0 1-10.405918-13.965891 12.299904 12.299904 0 0 1 13.965891-10.405919l9.777923 1.427989c0.261998 0.04 0.521996 0.083999 0.777994 0.137999l231.036195 34.047734a12.317904 12.317904 0 0 1-1.765986 24.503808zM612.325216 134.762947c-0.595995 0-1.199991-0.044-1.807986-0.131999l-152.144811-22.417825a12.315904 12.315904 0 0 1-10.387919-13.97989 12.305904 12.305904 0 0 1 13.977891-10.387919l152.144811 22.417825a12.313904 12.313904 0 0 1-1.781986 24.499808z" fill="#B3B3B3" p-id="4686"></path></svg>